<svg width="113" height="92" viewBox="0 0 113 92" fill="none" xmlns="http://www.w3.org/2000/svg">
<path d="M100.625 48.6621H12.2544C10.4013 48.6621 8.8949 50.2388 9.0563 52.0913C10.9931 74.1475 31.4671 91.5034 56.4365 91.5034C81.4059 91.5034 101.88 74.1475 103.817 52.0913C103.984 50.2388 102.478 48.6621 100.625 48.6621Z" fill="#FF6633"/>
<path d="M40.4875 15.6591C39.5012 15.6591 38.5208 15.2155 37.8812 14.3642C34.6531 10.1076 28.5199 7.45775 21.8785 7.45775C15.2372 7.45775 9.10393 10.1016 5.87591 14.3642C4.78197 15.809 2.7256 16.0848 1.29092 14.9877C-0.149734 13.8905 -0.424714 11.8282 0.669227 10.3894C5.1765 4.44219 13.1031 0.893066 21.8785 0.893066C30.654 0.893066 38.5806 4.44219 43.0938 10.3894C44.1878 11.8342 43.9068 13.8905 42.4721 14.9877C41.8743 15.4433 41.1809 15.6591 40.4875 15.6591Z" fill="#414141"/>
<path d="M109.603 15.6591C108.617 15.6591 107.637 15.2155 106.997 14.3642C103.769 10.1076 97.6356 7.45775 90.9943 7.45775C84.3529 7.45775 78.2197 10.1016 74.9916 14.3642C73.8977 15.809 71.8413 16.0848 70.4066 14.9877C68.966 13.8905 68.691 11.8282 69.7849 10.3894C74.2922 4.44219 82.2188 0.893066 90.9943 0.893066C99.7697 0.893066 107.696 4.44219 112.21 10.3894C113.303 11.8342 113.023 13.8905 111.588 14.9877C110.99 15.4433 110.297 15.6591 109.603 15.6591Z" fill="#414141"/>
</svg>
